<svg width="128" height="128" viewBox="0 0 128 128" fill="none" xmlns="http://www.w3.org/2000/svg">
  <path d="M14 26.1549C14 12.8146 24.8298 2 38.189 2H89.5906C102.95 2 113.78 12.8146 113.78 26.1549V77.4842C113.78 90.8245 102.95 101.639 89.5906 101.639H38.189C24.8298 101.639 14 90.8245 14 77.4842V26.1549Z" fill="black"/>
  <path d="M101.685 50.8131C101.685 56.6495 84.7635 61.3809 63.8898 61.3809C43.016 61.3809 26.0945 56.6495 26.0945 50.8131C26.0945 44.9767 43.016 40.2453 63.8898 40.2453C84.7635 40.2453 101.685 44.9767 101.685 50.8131Z" fill="white"/>
  <path d="M43.0159 125.794H38.3386V112.619H43.0545C44.3817 112.619 45.5241 112.882 46.4819 113.41C47.4396 113.933 48.1762 114.686 48.6915 115.668C49.2113 116.65 49.4711 117.825 49.4711 119.194C49.4711 120.565 49.2113 121.745 48.6915 122.731C48.1762 123.719 47.4353 124.476 46.469 125.003C45.5068 125.53 44.3559 125.794 43.0159 125.794ZM41.1282 123.408H42.8999C43.7245 123.408 44.4181 123.262 44.9807 122.97C45.5477 122.674 45.9729 122.217 46.2563 121.599C46.5442 120.977 46.688 120.176 46.688 119.194C46.688 118.219 46.5442 117.424 46.2563 116.806C45.9729 116.189 45.5499 115.735 44.9872 115.443C44.4246 115.151 43.731 115.006 42.9063 115.006H41.1282V123.408Z" fill="black"/>
  <path d="M67.8609 119.207C67.8609 120.643 67.5882 121.866 67.0427 122.873C66.5016 123.881 65.7628 124.651 64.8265 125.183C63.8945 125.71 62.8465 125.974 61.6826 125.974C60.5102 125.974 59.4578 125.708 58.5259 125.176C57.5939 124.645 56.8573 123.875 56.3161 122.867C55.775 121.859 55.5044 120.639 55.5044 119.207C55.5044 117.77 55.775 116.547 56.3161 115.539C56.8573 114.532 57.5939 113.764 58.5259 113.236C59.4578 112.704 60.5102 112.438 61.6826 112.438C62.8465 112.438 63.8945 112.704 64.8265 113.236C65.7628 113.764 66.5016 114.532 67.0427 115.539C67.5882 116.547 67.8609 117.77 67.8609 119.207ZM65.0327 119.207C65.0327 118.276 64.8931 117.491 64.6139 116.852C64.3391 116.213 63.9503 115.728 63.4478 115.397C62.9453 115.067 62.3569 114.902 61.6826 114.902C61.0084 114.902 60.42 115.067 59.9174 115.397C59.4149 115.728 59.0241 116.213 58.7449 116.852C58.47 117.491 58.3325 118.276 58.3325 119.207C58.3325 120.137 58.47 120.922 58.7449 121.561C59.0241 122.2 59.4149 122.685 59.9174 123.015C60.42 123.345 61.0084 123.51 61.6826 123.51C62.3569 123.51 62.9453 123.345 63.4478 123.015C63.9503 122.685 64.3391 122.2 64.6139 121.561C64.8931 120.922 65.0327 120.137 65.0327 119.207Z" fill="black"/>
  <path d="M74.126 112.619H77.5663L81.1998 121.471H81.3544L84.9879 112.619H88.4282V125.794H85.7223V117.218H85.6129L82.1984 125.73H80.3558L76.9414 117.186H76.8319V125.794H74.126V112.619Z" fill="black"/>
</svg>
