<svg width="128" height="128" viewBox="0 0 128 128" fill="none" xmlns="http://www.w3.org/2000/svg">
  <path d="M15 26C15 12.7452 25.7452 2 39 2H90C103.255 2 114 12.7452 114 26V77C114 90.2548 103.255 101 90 101H39C25.7452 101 15 90.2548 15 77V26Z" fill="white"/>
  <path d="M102 50.5C102 56.299 85.2107 61 64.5 61C43.7893 61 27 56.299 27 50.5C27 44.701 43.7893 40 64.5 40C85.2107 40 102 44.701 102 50.5Z" fill="black"/>
  <path d="M43.7892 125H39.1485V111.909H43.8275C45.1443 111.909 46.2778 112.171 47.2281 112.695C48.1784 113.215 48.9092 113.963 49.4205 114.939C49.9362 115.915 50.194 117.082 50.194 118.442C50.194 119.805 49.9362 120.977 49.4205 121.957C48.9092 122.938 48.1741 123.69 47.2153 124.214C46.2607 124.738 45.1187 125 43.7892 125ZM41.9163 122.629H43.6741C44.4923 122.629 45.1805 122.484 45.7387 122.194C46.3012 121.9 46.7231 121.446 47.0043 120.832C47.2899 120.214 47.4326 119.418 47.4326 118.442C47.4326 117.474 47.2899 116.684 47.0043 116.07C46.7231 115.457 46.3034 115.005 45.7451 114.715C45.1869 114.425 44.4987 114.281 43.6805 114.281H41.9163V122.629Z" fill="white"/>
  <path d="M68.4401 118.455C68.4401 119.882 68.1695 121.097 67.6283 122.098C67.0914 123.099 66.3584 123.864 65.4294 124.393C64.5047 124.917 63.4649 125.179 62.3101 125.179C61.1468 125.179 60.1027 124.915 59.178 124.386C58.2533 123.858 57.5225 123.093 56.9855 122.092C56.4486 121.09 56.1801 119.878 56.1801 118.455C56.1801 117.027 56.4486 115.813 56.9855 114.811C57.5225 113.81 58.2533 113.047 59.178 112.523C60.1027 111.994 61.1468 111.73 62.3101 111.73C63.4649 111.73 64.5047 111.994 65.4294 112.523C66.3584 113.047 67.0914 113.81 67.6283 114.811C68.1695 115.813 68.4401 117.027 68.4401 118.455ZM65.634 118.455C65.634 117.53 65.4955 116.75 65.2185 116.115C64.9458 115.48 64.5601 114.999 64.0615 114.67C63.5629 114.342 62.9791 114.178 62.3101 114.178C61.6411 114.178 61.0573 114.342 60.5587 114.67C60.0601 114.999 59.6723 115.48 59.3953 116.115C59.1226 116.75 58.9862 117.53 58.9862 118.455C58.9862 119.379 59.1226 120.159 59.3953 120.794C59.6723 121.429 60.0601 121.911 60.5587 122.239C61.0573 122.567 61.6411 122.731 62.3101 122.731C62.9791 122.731 63.5629 122.567 64.0615 122.239C64.5601 121.911 64.9458 121.429 65.2185 120.794C65.4955 120.159 65.634 119.379 65.634 118.455Z" fill="white"/>
  <path d="M74.6563 111.909H78.0697L81.6748 120.705H81.8282L85.4333 111.909H88.8467V125H86.162V116.479H86.0534L82.6656 124.936H80.8374L77.4497 116.447H77.341V125H74.6563V111.909Z" fill="white"/>
</svg>
